{
  "accessors": [
    {
      "bufferView": 2,
      "componentType": 5126,
      "count": 84,
      "max": [
        0.23592038452625275,
        1.0626556873321533,
        1.1000000238418579
      ],
      "min": [
        -0.23592038452625275,
        -1.0626556873321533,
        -1.1000000238418579
      ],
      "type": "VEC3"
    },
    {
      "bufferView": 2,
      "byteOffset": 1008,
      "componentType": 5126,
      "count": 84,
      "max": [
        1,
        1,
        1
      ],
      "min": [
        -1,
        -1,
        -1
      ],
      "type": "VEC3"
    },
    {
      "bufferView": 1,
      "componentType": 5126,
      "count": 84,
      "max": [
        0.65625,
        1
      ],
      "min": [
        0.34375,
        0
      ],
      "type": "VEC2"
    },
    {
      "bufferView": 0,
      "componentType": 5125,
      "count": 240,
      "max": [
        83
      ],
      "min": [
        0
      ],
      "type": "SCALAR"
    },
    {
      "bufferView": 2,
      "byteOffset": 2016,
      "componentType": 5126,
      "count": 24,
      "max": [
        0.5,
        0.5,
        0.5
      ],
      "min": [
        -0.5,
        -0.5,
        -0.5
      ],
      "type": "VEC3"
    },
    {
      "bufferView": 2,
      "byteOffset": 2304,
      "componentType": 5126,
      "count": 24,
      "max": [
        1,
        1,
        1
      ],
      "min": [
        -1,
        -1,
        -1
      ],
      "type": "VEC3"
    },
    {
      "bufferView": 1,
      "byteOffset": 672,
      "componentType": 5126,
      "count": 24,
      "max": [
        0.875,
        1
      ],
      "min": [
        0.125,
        0
      ],
      "type": "VEC2"
    },
    {
      "bufferView": 0,
      "byteOffset": 960,
      "componentType": 5125,
      "count": 36,
      "max": [
        23
      ],
      "min": [
        0
      ],
      "type": "SCALAR"
    },
    {
      "bufferView": 2,
      "byteOffset": 2592,
      "componentType": 5126,
      "count": 65532,
      "max": [
        9.5642843246459961,
        9.6006965637207031,
        9.5642843246459961
      ],
      "min": [
        -9.5642843246459961,
        -9.6006965637207031,
        -7.6930937767028809
      ],
      "type": "VEC3"
    },
    {
      "bufferView": 2,
      "byteOffset": 788976,
      "componentType": 5126,
      "count": 65532,
      "max": [
        1,
        1,
        1
      ],
      "min": [
        -1,
        -1,
        -1
      ],
      "type": "VEC3"
    },
    {
      "bufferView": 1,
      "byteOffset": 864,
      "componentType": 5126,
      "count": 65532,
      "max": [
        0.95489400625228882,
        0.99799197912216187
      ],
      "min": [
        0.001905999961309135,
        0.0019919872283935547
      ],
      "type": "VEC2"
    },
    {
      "bufferView": 0,
      "byteOffset": 1104,
      "componentType": 5125,
      "count": 144726,
      "max": [
        65531
      ],
      "min": [
        0
      ],
      "type": "SCALAR"
    },
    {
      "bufferView": 2,
      "byteOffset": 1575360,
      "componentType": 5126,
      "count": 65533,
      "max": [
        7.2071118354797363,
        9.6006965637207031,
        7.2071118354797363
      ],
      "min": [
        -7.2071118354797363,
        -9.6006965637207031,
        -9.5642843246459961
      ],
      "type": "VEC3"
    },
    {
      "bufferView": 2,
      "byteOffset": 2361756,
      "componentType": 5126,
      "count": 65533,
      "max": [
        1,
        1,
        0.99974352121353149
      ],
      "min": [
        -1,
        -1,
        -0.99998915195465088
      ],
      "type": "VEC3"
    },
    {
      "bufferView": 1,
      "byteOffset": 525120,
      "componentType": 5126,
      "count": 65533,
      "max": [
        0.95489400625228882,
        0.99793499708175659
      ],
      "min": [
        0.001905999961309135,
        0.0019919872283935547
      ],
      "type": "VEC2"
    },
    {
      "bufferView": 0,
      "byteOffset": 580008,
      "componentType": 5125,
      "count": 143121,
      "max": [
        65532
      ],
      "min": [
        0
      ],
      "type": "SCALAR"
    },
    {
      "bufferView": 2,
      "byteOffset": 3148152,
      "componentType": 5126,
      "count": 65534,
      "max": [
        9.0166721343994141,
        9.6006965637207031,
        7.2071118354797363
      ],
      "min": [
        -9.0166721343994141,
        -9.6006965637207031,
        -7.2071118354797363
      ],
      "type": "VEC3"
    },
    {
      "bufferView": 2,
      "byteOffset": 3934560,
      "componentType": 5126,
      "count": 65534,
      "max": [
        0.99974364042282104,
        1,
        0.99993568658828735
      ],
      "min": [
        -0.99974364042282104,
        -1,
        -0.99993568658828735
      ],
      "type": "VEC3"
    },
    {
      "bufferView": 1,
      "byteOffset": 1049384,
      "componentType": 5126,
      "count": 65534,
      "max": [
        0.95489400625228882,
        0.99767500162124634
      ],
      "min": [
        0.001905999961309135,
        0.0019919872283935547
      ],
      "type": "VEC2"
    },
    {
      "bufferView": 0,
      "byteOffset": 1152492,
      "componentType": 5125,
      "count": 143910,
      "max": [
        65533
      ],
      "min": [
        0
      ],
      "type": "SCALAR"
    },
    {
      "bufferView": 2,
      "byteOffset": 4720968,
      "componentType": 5126,
      "count": 65532,
      "max": [
        9.0166721343994141,
        9.6006965637207031,
        8.9902734756469727
      ],
      "min": [
        -9.0166721343994141,
        -9.6006965637207031,
        -8.9902734756469727
      ],
      "type": "VEC3"
    },
    {
      "bufferView": 2,
      "byteOffset": 5507352,
      "componentType": 5126,
      "count": 65532,
      "max": [
        0.99989491701126099,
        1,
        0.99993568658828735
      ],
      "min": [
        -0.99989491701126099,
        -1,
        -0.99993568658828735
      ],
      "type": "VEC3"
    },
    {
      "bufferView": 1,
      "byteOffset": 1573656,
      "componentType": 5126,
      "count": 65532,
      "max": [
        0.95489400625228882,
        0.99791300296783447
      ],
      "min": [
        0.001905999961309135,
        0.0019919872283935547
      ],
      "type": "VEC2"
    },
    {
      "bufferView": 0,
      "byteOffset": 1728132,
      "componentType": 5125,
      "count": 143388,
      "max": [
        65531
      ],
      "min": [
        0
      ],
      "type": "SCALAR"
    },
    {
      "bufferView": 2,
      "byteOffset": 6293736,
      "componentType": 5126,
      "count": 34985,
      "max": [
        4.2964720726013184,
        9.6006965637207031,
        9.042384147644043
      ],
      "min": [
        -4.2964730262756348,
        -9.6006965637207031,
        -9.0423831939697266
      ],
      "type": "VEC3"
    },
    {
      "bufferView": 2,
      "byteOffset": 6713556,
      "componentType": 5126,
      "count": 34985,
      "max": [
        1,
        1,
        1
      ],
      "min": [
        -1,
        -1,
        -1
      ],
      "type": "VEC3"
    },
    {
      "bufferView": 1,
      "byteOffset": 2097912,
      "componentType": 5126,
      "count": 34985,
      "max": [
        0.95489400625228882,
        0.99800801277160645
      ],
      "min": [
        0.001905999961309135,
        0.037994027137756348
      ],
      "type": "VEC2"
    },
    {
      "bufferView": 0,
      "byteOffset": 2301684,
      "componentType": 5125,
      "count": 76227,
      "max": [
        34984
      ],
      "min": [
        0
      ],
      "type": "SCALAR"
    }
  ],
  "asset": {
    "extras": {
      "author": "khj107 (https://sketchfab.com/khj107)",
      "license": "CC-BY-4.0 (http://creativecommons.org/licenses/by/4.0/)",
      "source": "https://sketchfab.com/3d-models/wangechi-mutu-terrestrial-cosmology-1-2d0a81a332dc4276b4d67f0c6c2b35b2",
      "title": "Wangechi Mutu Terrestrial Cosmology 1"
    },
    "generator": "Sketchfab-8.27.0",
    "version": "2.0"
  },
  "bufferViews": [
    {
      "buffer": 0,
      "byteLength": 2606592,
      "byteOffset": 0,
      "name": "floatBufferViews",
      "target": 34963
    },
    {
      "buffer": 0,
      "byteLength": 2377792,
      "byteOffset": 2606592,
      "byteStride": 8,
      "name": "floatBufferViews",
      "target": 34962
    },
    {
      "buffer": 0,
      "byteLength": 7133376,
      "byteOffset": 4984384,
      "byteStride": 12,
      "name": "floatBufferViews",
      "target": 34962
    }
  ],
  "buffers": [
    {
      "byteLength": 12117760,
      "uri": "scene.bin"
    }
  ],
  "extensionsRequired": [
    "KHR_materials_pbrSpecularGlossiness"
  ],
  "extensionsUsed": [
    "KHR_materials_pbrSpecularGlossiness"
  ],
  "materials": [
    {
      "doubleSided": true,
      "emissiveFactor": [
        0,
        0,
        0
      ],
      "extensions": {
        "KHR_materials_pbrSpecularGlossiness": {
          "diffuseFactor": [
            0.20254576850348702,
            0.20254576850348702,
            0.20254576850348702,
            1
          ],
          "glossinessFactor": 0.48204372860539069,
          "specularFactor": [
            0,
            0,
            0
          ]
        }
      },
      "name": "lambert1"
    },
    {
      "doubleSided": true,
      "emissiveFactor": [
        0,
        0,
        0
      ],
      "extensions": {
        "KHR_materials_pbrSpecularGlossiness": {
          "diffuseFactor": [
            0.40990987343505997,
            0.36937344766808278,
            0.23379358264686484,
            1
          ],
          "glossinessFactor": 0.55316310975609762,
          "specularFactor": [
            0,
            0,
            0
          ]
        }
      },
      "name": "Wood"
    },
    {
      "doubleSided": true,
      "emissiveFactor": [
        0,
        0,
        0
      ],
      "extensions": {
        "KHR_materials_pbrSpecularGlossiness": {
          "diffuseFactor": [
            0.16460807970228092,
            0.057918322483767729,
            0.019780569106493825,
            1
          ],
          "glossinessFactor": 0,
          "specularFactor": [
            0,
            0,
            0
          ]
        }
      },
      "name": "material"
    }
  ],
  "meshes": [
    {
      "name": "pCylinder1_lambert1_0",
      "primitives": [
        {
          "attributes": {
            "NORMAL": 1,
            "POSITION": 0,
            "TEXCOORD_0": 2
          },
          "indices": 3,
          "material": 0,
          "mode": 4
        }
      ]
    },
    {
      "name": "pCube1_Wood_0",
      "primitives": [
        {
          "attributes": {
            "NORMAL": 5,
            "POSITION": 4,
            "TEXCOORD_0": 6
          },
          "indices": 7,
          "material": 1,
          "mode": 4
        }
      ]
    },
    {
      "name": "coronaFBXASC058pSphere2_Mat_0",
      "primitives": [
        {
          "attributes": {
            "NORMAL": 9,
            "POSITION": 8,
            "TEXCOORD_0": 10
          },
          "indices": 11,
          "material": 2,
          "mode": 4
        }
      ]
    },
    {
      "name": "coronaFBXASC058pSphere2_Mat_0",
      "primitives": [
        {
          "attributes": {
            "NORMAL": 13,
            "POSITION": 12,
            "TEXCOORD_0": 14
          },
          "indices": 15,
          "material": 2,
          "mode": 4
        }
      ]
    },
    {
      "name": "coronaFBXASC058pSphere2_Mat_0",
      "primitives": [
        {
          "attributes": {
            "NORMAL": 17,
            "POSITION": 16,
            "TEXCOORD_0": 18
          },
          "indices": 19,
          "material": 2,
          "mode": 4
        }
      ]
    },
    {
      "name": "coronaFBXASC058pSphere2_Mat_0",
      "primitives": [
        {
          "attributes": {
            "NORMAL": 21,
            "POSITION": 20,
            "TEXCOORD_0": 22
          },
          "indices": 23,
          "material": 2,
          "mode": 4
        }
      ]
    },
    {
      "name": "coronaFBXASC058pSphere2_Mat_0",
      "primitives": [
        {
          "attributes": {
            "NORMAL": 25,
            "POSITION": 24,
            "TEXCOORD_0": 26
          },
          "indices": 27,
          "material": 2,
          "mode": 4
        }
      ]
    }
  ],
  "nodes": [
    {
      "children": [
        1
      ],
      "name": "RootNode (gltf orientation matrix)",
      "rotation": [
        -0.70710678118654746,
        -0,
        -0,
        0.70710678118654757
      ]
    },
    {
      "children": [
        2
      ],
      "matrix": [
        0.043780144304037094,
        0,
        0,
        0,
        0,
        0.043780144304037094,
        0,
        0,
        0,
        0,
        0.043780144304037094,
        0,
        0,
        0,
        0,
        1
      ],
      "name": "RootNode (model correction matrix)"
    },
    {
      "children": [
        3
      ],
      "matrix": [
        1,
        0,
        0,
        0,
        0,
        0,
        1,
        0,
        0,
        -1,
        0,
        0,
        0,
        0,
        0,
        1
      ],
      "name": "269d6acb6a154776aac6052c913b3e9b.fbx"
    },
    {
      "children": [
        4,
        6,
        8,
        10
      ],
      "name": "RootNode"
    },
    {
      "children": [
        5
      ],
      "matrix": [
        -0.66675391797236894,
        -0.33298412234968411,
        -0.66675391797236949,
        0,
        -0.23545533094091287,
        0.94293243356192313,
        -0.23545533094091242,
        0,
        0.70710678118654735,
        4.0245584642661925e-16,
        -0.70710678118654702,
        0,
        52.046260833740234,
        42.452804565429688,
        52.316944122314453,
        1
      ],
      "name": "CINEMA_4D_Editor"
    },
    {
      "name": ""
    },
    {
      "children": [
        7
      ],
      "matrix": [
        -0.44123455882072449,
        -0,
        5.4035649013299478e-17,
        -0,
        -0,
        -4.71197509765625,
        -0,
        -0,
        -1.4354329757106767e-17,
        -0,
        -0.11721199750900269,
        -0,
        0,
        18.903518676757812,
        0,
        1
      ],
      "name": "pCylinder1"
    },
    {
      "mesh": 0,
      "name": "pCylinder1_lambert1_0"
    },
    {
      "children": [
        9
      ],
      "matrix": [
        4.9687099456787109,
        0,
        0,
        0,
        0,
        14.298842430114746,
        0,
        0,
        0,
        0,
        4.9687099456787109,
        0,
        0,
        7.1991791725158691,
        0,
        1
      ],
      "name": "pCube1"
    },
    {
      "mesh": 1,
      "name": "pCube1_Wood_0"
    },
    {
      "children": [
        11,
        12,
        13,
        14,
        15
      ],
      "matrix": [
        0.51245200634002686,
        0,
        0,
        0,
        0,
        0.51245200634002686,
        0,
        0,
        0,
        0,
        0.51245200634002686,
        0,
        0,
        27.627298355102539,
        0,
        1
      ],
      "name": "coronaFBXASC058pSphere2"
    },
    {
      "mesh": 2,
      "name": "coronaFBXASC058pSphere2_Mat_0"
    },
    {
      "mesh": 3,
      "name": "coronaFBXASC058pSphere2_Mat_0"
    },
    {
      "mesh": 4,
      "name": "coronaFBXASC058pSphere2_Mat_0"
    },
    {
      "mesh": 5,
      "name": "coronaFBXASC058pSphere2_Mat_0"
    },
    {
      "mesh": 6,
      "name": "coronaFBXASC058pSphere2_Mat_0"
    }
  ],
  "scene": 0,
  "scenes": [
    {
      "name": "OSG_Scene",
      "nodes": [
        0
      ]
    }
  ]
}

