{
  "accessors": [
    {
      "bufferView": 2,
      "componentType": 5126,
      "count": 31375,
      "max": [
        243.476318359375,
        247.91944885253906,
        561.9552001953125
      ],
      "min": [
        -251.87583923339844,
        -246.82490539550781,
        -0.051942501217126846
      ],
      "type": "VEC3"
    },
    {
      "bufferView": 2,
      "byteOffset": 376500,
      "componentType": 5126,
      "count": 31375,
      "max": [
        0.99999189376831055,
        0.99999189376831055,
        0.99964445829391479
      ],
      "min": [
        -0.99999189376831055,
        -0.99999189376831055,
        -0.99665313959121704
      ],
      "type": "VEC3"
    },
    {
      "bufferView": 3,
      "componentType": 5126,
      "count": 31375,
      "max": [
        0.9999271035194397,
        0.9999271035194397,
        0.99987924098968506,
        1
      ],
      "min": [
        -0.99992716312408447,
        -0.99972838163375854,
        -0.9990425705909729,
        -1
      ],
      "type": "VEC4"
    },
    {
      "bufferView": 1,
      "componentType": 5126,
      "count": 31375,
      "max": [
        1,
        1
      ],
      "min": [
        0,
        0
      ],
      "type": "VEC2"
    },
    {
      "bufferView": 0,
      "componentType": 5125,
      "count": 100707,
      "max": [
        31374
      ],
      "min": [
        0
      ],
      "type": "SCALAR"
    }
  ],
  "asset": {
    "extras": {
      "author": "tumblindwnagain (https://sketchfab.com/tumblindwnagain)",
      "license": "CC-BY-4.0 (http://creativecommons.org/licenses/by/4.0/)",
      "source": "https://sketchfab.com/3d-models/spore-3-attempt3-6b53ec53af664900b7ae941bb72c3a22",
      "title": "Spore 3 Attempt3"
    },
    "generator": "Sketchfab-4.81.0",
    "version": "2.0"
  },
  "bufferViews": [
    {
      "buffer": 0,
      "byteLength": 402828,
      "byteOffset": 0,
      "name": "floatBufferViews",
      "target": 34963
    },
    {
      "buffer": 0,
      "byteLength": 251000,
      "byteOffset": 402828,
      "byteStride": 8,
      "name": "floatBufferViews",
      "target": 34962
    },
    {
      "buffer": 0,
      "byteLength": 753000,
      "byteOffset": 653828,
      "byteStride": 12,
      "name": "floatBufferViews",
      "target": 34962
    },
    {
      "buffer": 0,
      "byteLength": 502000,
      "byteOffset": 1406828,
      "byteStride": 16,
      "name": "floatBufferViews",
      "target": 34962
    }
  ],
  "buffers": [
    {
      "byteLength": 1908828,
      "uri": "scene.bin"
    }
  ],
  "materials": [
    {
      "doubleSided": true,
      "name": "default",
      "pbrMetallicRoughness": {
        "baseColorFactor": [
          1,
          1,
          1,
          1
        ],
        "metallicFactor": 0,
        "roughnessFactor": 0.59999999999999998
      }
    }
  ],
  "meshes": [
    {
      "primitives": [
        {
          "attributes": {
            "NORMAL": 1,
            "POSITION": 0,
            "TANGENT": 2,
            "TEXCOORD_0": 3
          },
          "indices": 4,
          "material": 0,
          "mode": 4
        }
      ]
    }
  ],
  "nodes": [
    {
      "children": [
        1
      ],
      "name": "RootNode (gltf orientation matrix)",
      "rotation": [
        -0.70710678118654746,
        -0,
        -0,
        0.70710678118654757
      ]
    },
    {
      "children": [
        2
      ],
      "name": "RootNode (model correction matrix)"
    },
    {
      "children": [
        3
      ],
      "name": "Spore_3_attempt3.obj.cleaner.materialmerger.gles"
    },
    {
      "mesh": 0,
      "name": ""
    }
  ],
  "scene": 0,
  "scenes": [
    {
      "name": "OSG_Scene",
      "nodes": [
        0
      ]
    }
  ]
}

