{
  "accessors": [
    {
      "bufferView": 2,
      "componentType": 5126,
      "count": 46462,
      "max": [
        52.521141052246094,
        52.521137237548828,
        52.521137237548828
      ],
      "min": [
        -52.521141052246094,
        -52.521137237548828,
        -52.521137237548828
      ],
      "type": "VEC3"
    },
    {
      "bufferView": 2,
      "byteOffset": 557544,
      "componentType": 5126,
      "count": 46462,
      "max": [
        0.99999988079071045,
        0.99999988079071045,
        0.9999997615814209
      ],
      "min": [
        -0.99993520975112915,
        -0.99993520975112915,
        -0.99999499320983887
      ],
      "type": "VEC3"
    },
    {
      "bufferView": 3,
      "componentType": 5126,
      "count": 46462,
      "max": [
        1,
        1,
        0.99998396635055542,
        1
      ],
      "min": [
        -1,
        -1,
        -1,
        -1
      ],
      "type": "VEC4"
    },
    {
      "bufferView": 1,
      "componentType": 5126,
      "count": 46462,
      "max": [
        1.5287321805953979,
        1.2521634101867676
      ],
      "min": [
        -0.84989941120147705,
        -0.2428276538848877
      ],
      "type": "VEC2"
    },
    {
      "bufferView": 0,
      "componentType": 5125,
      "count": 224640,
      "max": [
        46461
      ],
      "min": [
        0
      ],
      "type": "SCALAR"
    }
  ],
  "asset": {
    "extras": {
      "author": "tumblindwnagain (https://sketchfab.com/tumblindwnagain)",
      "license": "CC-BY-4.0 (http://creativecommons.org/licenses/by/4.0/)",
      "source": "https://sketchfab.com/3d-models/summer-2-b76276db62dc4c908899c439ddadf525",
      "title": "Summer 2"
    },
    "generator": "Sketchfab-5.38.0",
    "version": "2.0"
  },
  "bufferViews": [
    {
      "buffer": 0,
      "byteLength": 898560,
      "byteOffset": 0,
      "name": "floatBufferViews",
      "target": 34963
    },
    {
      "buffer": 0,
      "byteLength": 371696,
      "byteOffset": 898560,
      "byteStride": 8,
      "name": "floatBufferViews",
      "target": 34962
    },
    {
      "buffer": 0,
      "byteLength": 1115088,
      "byteOffset": 1270256,
      "byteStride": 12,
      "name": "floatBufferViews",
      "target": 34962
    },
    {
      "buffer": 0,
      "byteLength": 743392,
      "byteOffset": 2385344,
      "byteStride": 16,
      "name": "floatBufferViews",
      "target": 34962
    }
  ],
  "buffers": [
    {
      "byteLength": 3128736,
      "uri": "scene.bin"
    }
  ],
  "materials": [
    {
      "doubleSided": true,
      "emissiveFactor": [
        0,
        0,
        0
      ],
      "name": "default",
      "pbrMetallicRoughness": {
        "baseColorFactor": [
          0.32319083279999999,
          0.43425069249999998,
          0.1164539998,
          1
        ],
        "metallicFactor": 0.080983231700000005,
        "roughnessFactor": 0
      }
    }
  ],
  "meshes": [
    {
      "primitives": [
        {
          "attributes": {
            "NORMAL": 1,
            "POSITION": 0,
            "TANGENT": 2,
            "TEXCOORD_0": 3
          },
          "indices": 4,
          "material": 0,
          "mode": 4
        }
      ]
    }
  ],
  "nodes": [
    {
      "children": [
        1
      ],
      "name": "RootNode (gltf orientation matrix)",
      "rotation": [
        -0.70710678118654746,
        -0,
        -0,
        0.70710678118654757
      ]
    },
    {
      "children": [
        2
      ],
      "name": "RootNode (model correction matrix)"
    },
    {
      "children": [
        3
      ],
      "name": "Summer_2.obj.cleaner.materialmerger.gles"
    },
    {
      "mesh": 0,
      "name": ""
    }
  ],
  "scene": 0,
  "scenes": [
    {
      "name": "OSG_Scene",
      "nodes": [
        0
      ]
    }
  ]
}

