{
  "accessors": [
    {
      "bufferView": 2,
      "componentType": 5126,
      "count": 43200,
      "max": [
        35.215812683105469,
        35.215812683105469,
        35.215812683105469
      ],
      "min": [
        -35.215812683105469,
        -35.215812683105469,
        -35.215812683105469
      ],
      "type": "VEC3"
    },
    {
      "bufferView": 2,
      "byteOffset": 518400,
      "componentType": 5126,
      "count": 43200,
      "max": [
        0.99999988079071045,
        0.99999833106994629,
        0.99999809265136719
      ],
      "min": [
        -0.99999082088470459,
        -0.99999082088470459,
        -0.99999964237213135
      ],
      "type": "VEC3"
    },
    {
      "bufferView": 3,
      "componentType": 5126,
      "count": 43200,
      "max": [
        1,
        1,
        0.9999462366104126,
        1
      ],
      "min": [
        -1,
        -0.99999809265136719,
        -1,
        -1
      ],
      "type": "VEC4"
    },
    {
      "bufferView": 1,
      "componentType": 5126,
      "count": 43200,
      "max": [
        1.6057336330413818,
        1.2879383563995361
      ],
      "min": [
        -0.93796724081039429,
        -0.29527449607849121
      ],
      "type": "VEC2"
    },
    {
      "bufferView": 0,
      "componentType": 5125,
      "count": 108468,
      "max": [
        43199
      ],
      "min": [
        0
      ],
      "type": "SCALAR"
    }
  ],
  "asset": {
    "extras": {
      "author": "tumblindwnagain (https://sketchfab.com/tumblindwnagain)",
      "license": "CC-BY-4.0 (http://creativecommons.org/licenses/by/4.0/)",
      "source": "https://sketchfab.com/3d-models/summer-spore-a2a4784a72994608b6e21d0c125ac636",
      "title": "Summer Spore"
    },
    "generator": "Sketchfab-5.3.0",
    "version": "2.0"
  },
  "bufferViews": [
    {
      "buffer": 0,
      "byteLength": 433872,
      "byteOffset": 0,
      "name": "floatBufferViews",
      "target": 34963
    },
    {
      "buffer": 0,
      "byteLength": 345600,
      "byteOffset": 433872,
      "byteStride": 8,
      "name": "floatBufferViews",
      "target": 34962
    },
    {
      "buffer": 0,
      "byteLength": 1036800,
      "byteOffset": 779472,
      "byteStride": 12,
      "name": "floatBufferViews",
      "target": 34962
    },
    {
      "buffer": 0,
      "byteLength": 691200,
      "byteOffset": 1816272,
      "byteStride": 16,
      "name": "floatBufferViews",
      "target": 34962
    }
  ],
  "buffers": [
    {
      "byteLength": 2507472,
      "uri": "scene.bin"
    }
  ],
  "materials": [
    {
      "doubleSided": true,
      "name": "Scene_-_Root",
      "pbrMetallicRoughness": {
        "baseColorFactor": [
          0.45139187539999998,
          0.80149452669999999,
          0.70716097180000004,
          1
        ],
        "metallicFactor": 0,
        "roughnessFactor": 0.28487042679999997
      }
    }
  ],
  "meshes": [
    {
      "name": "Subdivision_Surface_1__0",
      "primitives": [
        {
          "attributes": {
            "NORMAL": 1,
            "POSITION": 0,
            "TANGENT": 2,
            "TEXCOORD_0": 3
          },
          "indices": 4,
          "material": 0,
          "mode": 4
        }
      ]
    }
  ],
  "nodes": [
    {
      "children": [
        1
      ],
      "name": "RootNode (gltf orientation matrix)",
      "rotation": [
        -0.70710678118654746,
        -0,
        -0,
        0.70710678118654757
      ]
    },
    {
      "children": [
        2
      ],
      "name": "RootNode (model correction matrix)"
    },
    {
      "children": [
        3
      ],
      "matrix": [
        1,
        0,
        0,
        0,
        0,
        0,
        1,
        0,
        0,
        -1,
        0,
        0,
        0,
        0,
        0,
        1
      ],
      "name": "7fc4098607aa4d3f88bedaa742a38e67.fbx"
    },
    {
      "children": [
        4
      ],
      "name": "RootNode"
    },
    {
      "children": [
        5
      ],
      "matrix": [
        1,
        0,
        0,
        0,
        0,
        1,
        0,
        0,
        0,
        0,
        1,
        0,
        0,
        51.86090087890625,
        0,
        1
      ],
      "name": "Subdivision_Surface_1"
    },
    {
      "mesh": 0,
      "name": "Subdivision_Surface_1__0"
    }
  ],
  "scene": 0,
  "scenes": [
    {
      "name": "OSG_Scene",
      "nodes": [
        0
      ]
    }
  ]
}

