{
  "accessors": [
    {
      "bufferView": 2,
      "componentType": 5126,
      "count": 47365,
      "max": [
        19.154708862304688,
        19.656421661376953,
        19.912065505981445
      ],
      "min": [
        -19.98591423034668,
        -19.559040069580078,
        -19.074432373046875
      ],
      "type": "VEC3"
    },
    {
      "bufferView": 2,
      "byteOffset": 568380,
      "componentType": 5126,
      "count": 47365,
      "max": [
        0.99999767541885376,
        0.99997192621231079,
        0.99991965293884277
      ],
      "min": [
        -0.99991607666015625,
        -0.99997371435165405,
        -0.99987202882766724
      ],
      "type": "VEC3"
    },
    {
      "bufferView": 3,
      "componentType": 5126,
      "count": 47365,
      "max": [
        0.99990665912628174,
        0.99997788667678833,
        0.99995964765548706,
        1
      ],
      "min": [
        -0.99999982118606567,
        -0.99993747472763062,
        -0.99999994039535522,
        1
      ],
      "type": "VEC4"
    },
    {
      "bufferView": 1,
      "componentType": 5126,
      "count": 47365,
      "max": [
        1,
        1
      ],
      "min": [
        0,
        0.13400006294250488
      ],
      "type": "VEC2"
    },
    {
      "bufferView": 2,
      "byteOffset": 1136760,
      "componentType": 5126,
      "count": 47365,
      "max": [
        0.52177715301513672,
        0.69495677947998047,
        0.68511009216308594
      ],
      "min": [
        -0.54548168182373047,
        -0.65911293029785156,
        -0.69488716125488281
      ],
      "type": "VEC3"
    },
    {
      "bufferView": 2,
      "byteOffset": 1705140,
      "componentType": 5126,
      "count": 47365,
      "max": [
        1.4626405239105225,
        1.445570707321167,
        1.1703463792800903
      ],
      "min": [
        -1.6055197715759277,
        -1.2649619579315186,
        -1.4273843765258789
      ],
      "type": "VEC3"
    },
    {
      "bufferView": 2,
      "byteOffset": 2273520,
      "componentType": 5126,
      "count": 47365,
      "max": [
        1.0427846908569336,
        1.3878574371337891,
        1.3646097183227539
      ],
      "min": [
        -1.0939168930053711,
        -1.3183574676513672,
        -1.3945207595825195
      ],
      "type": "VEC3"
    },
    {
      "bufferView": 2,
      "byteOffset": 2841900,
      "componentType": 5126,
      "count": 47365,
      "max": [
        1.6327544450759888,
        1.581615686416626,
        1.4024728536605835
      ],
      "min": [
        -1.7539225816726685,
        -1.4762495756149292,
        -1.7704191207885742
      ],
      "type": "VEC3"
    },
    {
      "bufferView": 2,
      "byteOffset": 3410280,
      "componentType": 5126,
      "count": 47365,
      "max": [
        1.5513668060302734,
        2.0784330368041992,
        2.0362606048583984
      ],
      "min": [
        -1.6359319686889648,
        -1.9717082977294922,
        -2.0837726593017578
      ],
      "type": "VEC3"
    },
    {
      "bufferView": 2,
      "byteOffset": 3978660,
      "componentType": 5126,
      "count": 47365,
      "max": [
        1.7208497524261475,
        1.6245282888412476,
        1.6373531818389893
      ],
      "min": [
        -1.8121421337127686,
        -1.7231838703155518,
        -1.8288414478302002
      ],
      "type": "VEC3"
    },
    {
      "bufferView": 2,
      "byteOffset": 4547040,
      "componentType": 5126,
      "count": 47365,
      "max": [
        2.049285888671875,
        2.7558107376098633,
        2.6911859512329102
      ],
      "min": [
        -2.167811393737793,
        -2.6121864318847656,
        -2.774683952331543
      ],
      "type": "VEC3"
    },
    {
      "bufferView": 2,
      "byteOffset": 5115420,
      "componentType": 5126,
      "count": 47365,
      "max": [
        1.777063250541687,
        1.6611769199371338,
        1.725597620010376
      ],
      "min": [
        -1.8560135364532471,
        -1.8136502504348755,
        -1.8576686382293701
      ],
      "type": "VEC3"
    },
    {
      "bufferView": 2,
      "byteOffset": 5683800,
      "componentType": 5126,
      "count": 47365,
      "max": [
        2.5490312576293945,
        3.4050531387329102,
        3.3086032867431641
      ],
      "min": [
        -2.6832742691040039,
        -3.2473201751708984,
        -3.4314432144165039
      ],
      "type": "VEC3"
    },
    {
      "bufferView": 2,
      "byteOffset": 6252180,
      "componentType": 5126,
      "count": 47365,
      "max": [
        1.8823882341384888,
        1.6787588596343994,
        1.7348282337188721
      ],
      "min": [
        -1.8820688724517822,
        -1.8904657363891602,
        -1.8733333349227905
      ],
      "type": "VEC3"
    },
    {
      "bufferView": 2,
      "byteOffset": 6820560,
      "componentType": 5126,
      "count": 47365,
      "max": [
        3.0444002151489258,
        4.0426387786865234,
        3.9267959594726562
      ],
      "min": [
        -3.1788311004638672,
        -3.8511972427368164,
        -4.0895395278930664
      ],
      "type": "VEC3"
    },
    {
      "bufferView": 2,
      "byteOffset": 7388940,
      "componentType": 5126,
      "count": 47365,
      "max": [
        1.9050056934356689,
        1.7238447666168213,
        1.7565057277679443
      ],
      "min": [
        -1.9023135900497437,
        -1.9075866937637329,
        -1.8813636302947998
      ],
      "type": "VEC3"
    },
    {
      "bufferView": 2,
      "byteOffset": 7957320,
      "componentType": 5126,
      "count": 47365,
      "max": [
        3.5123844146728516,
        4.6491775512695312,
        4.4865798950195312
      ],
      "min": [
        -3.6797828674316406,
        -4.4165811538696289,
        -4.6928815841674805
      ],
      "type": "VEC3"
    },
    {
      "bufferView": 2,
      "byteOffset": 8525700,
      "componentType": 5126,
      "count": 47365,
      "max": [
        1.9042730331420898,
        1.7859740257263184,
        1.7666608095169067
      ],
      "min": [
        -1.9097898006439209,
        -1.9211654663085938,
        -1.8856680393218994
      ],
      "type": "VEC3"
    },
    {
      "bufferView": 2,
      "byteOffset": 9094080,
      "componentType": 5126,
      "count": 47365,
      "max": [
        3.9537973403930664,
        5.1956415176391602,
        5.0087623596191406
      ],
      "min": [
        -4.1660900115966797,
        -4.9574565887451172,
        -5.2859811782836914
      ],
      "type": "VEC3"
    },
    {
      "bufferView": 2,
      "byteOffset": 9662460,
      "componentType": 5126,
      "count": 47365,
      "max": [
        1.902076244354248,
        1.8175023794174194,
        1.802405834197998
      ],
      "min": [
        -1.9124902486801147,
        -1.9299211502075195,
        -1.8877401351928711
      ],
      "type": "VEC3"
    },
    {
      "bufferView": 2,
      "byteOffset": 10230840,
      "componentType": 5126,
      "count": 47365,
      "max": [
        4.3951892852783203,
        5.745854377746582,
        5.4949378967285156
      ],
      "min": [
        -4.6232194900512695,
        -5.4549684524536133,
        -5.8147039413452148
      ],
      "type": "VEC3"
    },
    {
      "bufferView": 2,
      "byteOffset": 10799220,
      "componentType": 5126,
      "count": 47365,
      "max": [
        1.900266170501709,
        1.8800749778747559,
        1.8231170177459717
      ],
      "min": [
        -1.9237930774688721,
        -1.9355227947235107,
        -1.8891615867614746
      ],
      "type": "VEC3"
    },
    {
      "bufferView": 2,
      "byteOffset": 11367600,
      "componentType": 5126,
      "count": 47365,
      "max": [
        4.7954483032226562,
        6.2094135284423828,
        5.9892072677612305
      ],
      "min": [
        -5.0457916259765625,
        -5.9502935409545898,
        -6.3107318878173828
      ],
      "type": "VEC3"
    },
    {
      "bufferView": 2,
      "byteOffset": 11935980,
      "componentType": 5126,
      "count": 47365,
      "max": [
        1.9180432558059692,
        1.899983286857605,
        1.834308385848999
      ],
      "min": [
        -1.9372251033782959,
        -1.9393560886383057,
        -1.8906166553497314
      ],
      "type": "VEC3"
    },
    {
      "bufferView": 2,
      "byteOffset": 12504360,
      "componentType": 5126,
      "count": 47365,
      "max": [
        5.1711654663085938,
        6.65228271484375,
        6.4585132598876953
      ],
      "min": [
        -5.4278564453125,
        -6.4292240142822266,
        -6.746851921081543
      ],
      "type": "VEC3"
    },
    {
      "bufferView": 2,
      "byteOffset": 13072740,
      "componentType": 5126,
      "count": 47365,
      "max": [
        1.9316202402114868,
        1.9127488136291504,
        1.8462953567504883
      ],
      "min": [
        -1.9445090293884277,
        -1.9420781135559082,
        -1.890800952911377
      ],
      "type": "VEC3"
    },
    {
      "bufferView": 2,
      "byteOffset": 13641120,
      "componentType": 5126,
      "count": 47365,
      "max": [
        5.5362606048583984,
        7.0257959365844727,
        6.8777933120727539
      ],
      "min": [
        -5.7673482894897461,
        -6.8211336135864258,
        -7.1189393997192383
      ],
      "type": "VEC3"
    },
    {
      "bufferView": 2,
      "byteOffset": 14209500,
      "componentType": 5126,
      "count": 47365,
      "max": [
        1.9394479990005493,
        1.9161255359649658,
        1.8590329885482788
      ],
      "min": [
        -1.9477808475494385,
        -1.9440833330154419,
        -1.8903343677520752
      ],
      "type": "VEC3"
    },
    {
      "bufferView": 2,
      "byteOffset": 14777880,
      "componentType": 5126,
      "count": 47365,
      "max": [
        5.8503217697143555,
        7.3497562408447266,
        7.2767744064331055
      ],
      "min": [
        -6.0866622924804688,
        -7.199040412902832,
        -7.4403676986694336
      ],
      "type": "VEC3"
    },
    {
      "bufferView": 2,
      "byteOffset": 15346260,
      "componentType": 5126,
      "count": 47365,
      "max": [
        1.9442198276519775,
        1.9180456399917603,
        1.8767504692077637
      ],
      "min": [
        -1.9488239288330078,
        -1.9515380859375,
        -1.8902682065963745
      ],
      "type": "VEC3"
    },
    {
      "bufferView": 2,
      "byteOffset": 15914640,
      "componentType": 5126,
      "count": 47365,
      "max": [
        6.1398897171020508,
        7.60406494140625,
        7.6251659393310547
      ],
      "min": [
        -6.4332504272460938,
        -7.5617361068725586,
        -7.6899385452270508
      ],
      "type": "VEC3"
    },
    {
      "bufferView": 2,
      "byteOffset": 16483020,
      "componentType": 5126,
      "count": 47365,
      "max": [
        1.9492814540863037,
        1.9191642999649048,
        1.8840885162353516
      ],
      "min": [
        -1.9518852233886719,
        -1.9544857740402222,
        -1.8890390396118164
      ],
      "type": "VEC3"
    },
    {
      "bufferView": 0,
      "componentType": 5125,
      "count": 216000,
      "max": [
        47364
      ],
      "min": [
        0
      ],
      "type": "SCALAR"
    },
    {
      "bufferView": 4,
      "componentType": 5126,
      "count": 15,
      "max": [
        0.46666666865348816
      ],
      "min": [
        0
      ],
      "type": "SCALAR"
    },
    {
      "bufferView": 4,
      "byteOffset": 60,
      "componentType": 5126,
      "count": 210,
      "max": [
        1
      ],
      "min": [
        0
      ],
      "type": "SCALAR"
    }
  ],
  "animations": [
    {
      "channels": [
        {
          "sampler": 0,
          "target": {
            "node": 6,
            "path": "weights"
          }
        }
      ],
      "name": "",
      "samplers": [
        {
          "input": 33,
          "interpolation": "LINEAR",
          "output": 34
        }
      ]
    }
  ],
  "asset": {
    "extras": {
      "author": "tumblindwnagain (https://sketchfab.com/tumblindwnagain)",
      "license": "CC-BY-4.0 (http://creativecommons.org/licenses/by/4.0/)",
      "source": "https://sketchfab.com/3d-models/lsd-portrait-test-h-5fa8ce3e6b374752a9affbfcae37d422",
      "title": "LSD Portrait Test H"
    },
    "generator": "Sketchfab-4.84.0",
    "version": "2.0"
  },
  "bufferViews": [
    {
      "buffer": 0,
      "byteLength": 864000,
      "byteOffset": 0,
      "name": "floatBufferViews",
      "target": 34963
    },
    {
      "buffer": 0,
      "byteLength": 378920,
      "byteOffset": 864000,
      "byteStride": 8,
      "name": "floatBufferViews",
      "target": 34962
    },
    {
      "buffer": 0,
      "byteLength": 17051400,
      "byteOffset": 1242920,
      "byteStride": 12,
      "name": "floatBufferViews",
      "target": 34962
    },
    {
      "buffer": 0,
      "byteLength": 757840,
      "byteOffset": 18294320,
      "byteStride": 16,
      "name": "floatBufferViews",
      "target": 34962
    },
    {
      "buffer": 0,
      "byteLength": 900,
      "byteOffset": 19052160,
      "name": "floatBufferViews"
    }
  ],
  "buffers": [
    {
      "byteLength": 19053060,
      "uri": "scene.bin"
    }
  ],
  "materials": [
    {
      "doubleSided": true,
      "emissiveFactor": [
        0,
        0,
        0
      ],
      "name": "SphereShape",
      "pbrMetallicRoughness": {
        "baseColorFactor": [
          0.80000000000000004,
          0.80000000000000004,
          0.80000000000000004,
          1
        ],
        "metallicFactor": 0,
        "roughnessFactor": 0.59999999999999998
      }
    }
  ],
  "meshes": [
    {
      "name": "SphereShape",
      "primitives": [
        {
          "attributes": {
            "NORMAL": 1,
            "POSITION": 0,
            "TANGENT": 2,
            "TEXCOORD_0": 3
          },
          "indices": 32,
          "material": 0,
          "mode": 4,
          "targets": [
            {
              "NORMAL": 5,
              "POSITION": 4
            },
            {
              "NORMAL": 7,
              "POSITION": 6
            },
            {
              "NORMAL": 9,
              "POSITION": 8
            },
            {
              "NORMAL": 11,
              "POSITION": 10
            },
            {
              "NORMAL": 13,
              "POSITION": 12
            },
            {
              "NORMAL": 15,
              "POSITION": 14
            },
            {
              "NORMAL": 17,
              "POSITION": 16
            },
            {
              "NORMAL": 19,
              "POSITION": 18
            },
            {
              "NORMAL": 21,
              "POSITION": 20
            },
            {
              "NORMAL": 23,
              "POSITION": 22
            },
            {
              "NORMAL": 25,
              "POSITION": 24
            },
            {
              "NORMAL": 27,
              "POSITION": 26
            },
            {
              "NORMAL": 29,
              "POSITION": 28
            },
            {
              "NORMAL": 31,
              "POSITION": 30
            }
          ]
        }
      ],
      "weights": [
        0,
        0,
        0,
        0,
        0,
        0,
        0,
        0,
        0,
        0,
        0,
        0,
        0,
        0
      ]
    }
  ],
  "nodes": [
    {
      "children": [
        1
      ],
      "name": "RootNode (gltf orientation matrix)",
      "rotation": [
        -0.70710678118654746,
        -0,
        -0,
        0.70710678118654757
      ]
    },
    {
      "children": [
        2
      ],
      "name": "RootNode (model correction matrix)"
    },
    {
      "children": [
        3
      ],
      "name": "fe7636f8890c4dabb56af69fe23a3183.abc.cleaner.materialmerger.gles"
    },
    {
      "children": [
        4
      ],
      "matrix": [
        1,
        0,
        0,
        0,
        0,
        2.2204460492503131e-16,
        1,
        0,
        0,
        -1,
        2.2204460492503131e-16,
        0,
        0,
        0,
        0,
        1
      ],
      "name": ""
    },
    {
      "children": [
        5
      ],
      "name": "",
      "translation": [
        0,
        15.196660041809082,
        0
      ]
    },
    {
      "children": [
        6
      ],
      "name": "MorphMainGroup"
    },
    {
      "mesh": 0,
      "name": "SphereShape"
    }
  ],
  "scene": 0,
  "scenes": [
    {
      "name": "OSG_Scene",
      "nodes": [
        0
      ]
    }
  ]
}

